<svg width="20" height="19" viewBox="0 0 20 19" fill="none" xmlns="http://www.w3.org/2000/svg">
<path d="M13.4784 2.96871C13.4783 2.27226 13.7231 1.59795 14.17 1.06376C14.617 0.529575 15.2375 0.169525 15.9231 0.0466042C16.6087 -0.0763162 17.3157 0.0457211 17.9204 0.391365C18.5251 0.737008 18.989 1.28425 19.2309 1.93734C19.4729 2.59043 19.4774 3.30779 19.2438 3.9639C19.0102 4.62001 18.5533 5.1731 17.953 5.52639C17.3528 5.87969 16.6474 6.0107 15.9603 5.89649C15.2732 5.78229 14.6481 5.43015 14.1944 4.90169L6.21693 8.60617C6.40032 9.18729 6.40032 9.81079 6.21693 10.3919L14.1944 14.0964C14.674 13.5387 15.3435 13.179 16.0732 13.0868C16.803 12.9945 17.541 13.1765 18.1442 13.5974C18.7474 14.0182 19.1729 14.648 19.3382 15.3646C19.5035 16.0813 19.3968 16.8337 19.0389 17.4762C18.6809 18.1187 18.0971 18.6055 17.4007 18.8421C16.7043 19.0788 15.9448 19.0485 15.2694 18.7572C14.594 18.4658 14.0509 17.9342 13.7452 17.2652C13.4395 16.5963 13.3931 15.8377 13.6149 15.1365L5.63744 11.432C5.24252 11.8922 4.71613 12.2204 4.12908 12.3725C3.54202 12.5246 2.92246 12.4932 2.35374 12.2827C1.78503 12.0722 1.29444 11.6926 0.947968 11.1949C0.601498 10.6972 0.415771 10.1054 0.415771 9.49904C0.415771 8.89267 0.601498 8.30085 0.947968 7.80319C1.29444 7.30552 1.78503 6.92589 2.35374 6.71536C2.92246 6.50483 3.54202 6.47351 4.12908 6.62559C4.71613 6.77768 5.24252 7.10589 5.63744 7.56606L13.6149 3.86158C13.5241 3.57267 13.4781 3.27155 13.4784 2.96871Z" fill="white"/>
</svg>
