<svg width="24" height="24" viewBox="0 0 24 24" fill="none" xmlns="http://www.w3.org/2000/svg">
<path d="M18.4777 2.81348C18.9685 2.81348 19.4392 3.00846 19.7863 3.35555C20.1334 3.70263 20.3284 4.17337 20.3284 4.66421V15.7686C20.3284 16.2595 20.1334 16.7302 19.7863 17.0773C19.4392 17.4244 18.9685 17.6194 18.4777 17.6194H16.6269V19.4701C16.6269 19.961 16.4319 20.4317 16.0849 20.7788C15.7378 21.1259 15.267 21.3209 14.7762 21.3209H5.52249C5.03164 21.3209 4.5609 21.1259 4.21382 20.7788C3.86674 20.4317 3.67175 19.961 3.67175 19.4701V8.36569C3.67175 7.87484 3.86674 7.4041 4.21382 7.05702C4.5609 6.70994 5.03164 6.51495 5.52249 6.51495H7.37323V4.66421C7.37323 4.17337 7.56822 3.70263 7.9153 3.35555C8.26238 3.00846 8.73312 2.81348 9.22397 2.81348H18.4777ZM10.1493 14.8433H8.2986C8.06274 14.8435 7.83588 14.9338 7.66438 15.0958C7.49287 15.2577 7.38967 15.479 7.37585 15.7144C7.36202 15.9499 7.43863 16.1817 7.59001 16.3626C7.74139 16.5434 7.95612 16.6597 8.19033 16.6875L8.2986 16.694H10.1493C10.3852 16.6938 10.6121 16.6034 10.7836 16.4415C10.9551 16.2796 11.0583 16.0583 11.0721 15.8229C11.0859 15.5874 11.0093 15.3556 10.8579 15.1747C10.7065 14.9938 10.4918 14.8776 10.2576 14.8498L10.1493 14.8433ZM18.4777 4.66421H9.22397V6.51495H14.7762C15.267 6.51495 15.7378 6.70994 16.0849 7.05702C16.4319 7.4041 16.6269 7.87484 16.6269 8.36569V15.7686H18.4777V4.66421ZM12.0001 11.1418H8.2986C8.05317 11.1418 7.8178 11.2393 7.64426 11.4128C7.47072 11.5864 7.37323 11.8217 7.37323 12.0672C7.37323 12.3126 7.47072 12.548 7.64426 12.7215C7.8178 12.895 8.05317 12.9925 8.2986 12.9925H12.0001C12.2455 12.9925 12.4809 12.895 12.6544 12.7215C12.8279 12.548 12.9254 12.3126 12.9254 12.0672C12.9254 11.8217 12.8279 11.5864 12.6544 11.4128C12.4809 11.2393 12.2455 11.1418 12.0001 11.1418Z" fill="#F30000"/>
</svg>
