<svg width="19" height="19" viewBox="0 0 19 19" fill="none" xmlns="http://www.w3.org/2000/svg">
<path d="M13.0626 2.96871C13.0625 2.27226 13.3073 1.59795 13.7543 1.06376C14.2012 0.529575 14.8217 0.169525 15.5073 0.0466042C16.1929 -0.0763162 16.8999 0.0457211 17.5046 0.391365C18.1093 0.737008 18.5732 1.28425 18.8152 1.93734C19.0571 2.59043 19.0617 3.30779 18.828 3.9639C18.5944 4.62001 18.1375 5.1731 17.5373 5.52639C16.937 5.87969 16.2316 6.0107 15.5445 5.89649C14.8574 5.78229 14.2323 5.43015 13.7786 4.90169L5.80116 8.60617C5.98455 9.18729 5.98455 9.81079 5.80116 10.3919L13.7786 14.0964C14.2582 13.5387 14.9277 13.179 15.6575 13.0868C16.3872 12.9945 17.1252 13.1765 17.7284 13.5974C18.3316 14.0182 18.7571 14.648 18.9224 15.3646C19.0877 16.0813 18.981 16.8337 18.6231 17.4762C18.2651 18.1187 17.6814 18.6055 16.9849 18.8421C16.2885 19.0788 15.529 19.0485 14.8537 18.7572C14.1783 18.4658 13.6351 17.9342 13.3294 17.2652C13.0238 16.5963 12.9773 15.8377 13.1992 15.1365L5.22167 11.432C4.82675 11.8922 4.30036 12.2204 3.7133 12.3725C3.12625 12.5246 2.50669 12.4932 1.93797 12.2827C1.36926 12.0722 0.878665 11.6926 0.532196 11.1949C0.185727 10.6972 0 10.1054 0 9.49904C0 8.89267 0.185727 8.30085 0.532196 7.80319C0.878665 7.30552 1.36926 6.92589 1.93797 6.71536C2.50669 6.50483 3.12625 6.47351 3.7133 6.62559C4.30036 6.77768 4.82675 7.10589 5.22167 7.56606L13.1992 3.86158C13.1084 3.57267 13.0623 3.27155 13.0626 2.96871Z" fill="black"/>
</svg>
