<svg width="25" height="25" viewBox="0 0 25 25" fill="none" xmlns="http://www.w3.org/2000/svg">
<path d="M19.3933 3.31354C19.8842 3.31354 20.3549 3.50853 20.702 3.85561C21.0491 4.20269 21.244 4.67343 21.244 5.16428V16.2687C21.244 16.7596 21.0491 17.2303 20.702 17.5774C20.3549 17.9245 19.8842 18.1194 19.3933 18.1194H17.5426V19.9702C17.5426 20.461 17.3476 20.9318 17.0005 21.2789C16.6534 21.6259 16.1827 21.8209 15.6918 21.8209H6.43814C5.94729 21.8209 5.47655 21.6259 5.12947 21.2789C4.78239 20.9318 4.5874 20.461 4.5874 19.9702V8.86575C4.5874 8.37491 4.78239 7.90416 5.12947 7.55708C5.47655 7.21 5.94729 7.01501 6.43814 7.01501H8.28888V5.16428C8.28888 4.67343 8.48387 4.20269 8.83095 3.85561C9.17803 3.50853 9.64877 3.31354 10.1396 3.31354H19.3933ZM11.065 15.3433H9.21425C8.97839 15.3436 8.75153 15.4339 8.58003 15.5958C8.40852 15.7577 8.30532 15.979 8.2915 16.2145C8.27767 16.4499 8.35428 16.6818 8.50566 16.8626C8.65704 17.0435 8.87177 17.1597 9.10598 17.1876L9.21425 17.1941H11.065C11.3008 17.1938 11.5277 17.1035 11.6992 16.9416C11.8707 16.7797 11.9739 16.5584 11.9877 16.3229C12.0016 16.0875 11.925 15.8556 11.7736 15.6748C11.6222 15.4939 11.4075 15.3777 11.1733 15.3498L11.065 15.3433ZM19.3933 5.16428H10.1396V7.01501H15.6918C16.1827 7.01501 16.6534 7.21 17.0005 7.55708C17.3476 7.90416 17.5426 8.37491 17.5426 8.86575V16.2687H19.3933V5.16428ZM12.9157 11.6419H9.21425C8.96882 11.6419 8.73345 11.7394 8.55991 11.9129C8.38637 12.0864 8.28888 12.3218 8.28888 12.5672C8.28888 12.8127 8.38637 13.048 8.55991 13.2216C8.73345 13.3951 8.96882 13.4926 9.21425 13.4926H12.9157C13.1611 13.4926 13.3965 13.3951 13.5701 13.2216C13.7436 13.048 13.8411 12.8127 13.8411 12.5672C13.8411 12.3218 13.7436 12.0864 13.5701 11.9129C13.3965 11.7394 13.1611 11.6419 12.9157 11.6419Z" fill="#E9F4FF"/>
</svg>
