<svg width="65" height="40" viewBox="0 0 65 40" fill="none" xmlns="http://www.w3.org/2000/svg">
<path d="M65.0098 0H0V40H65.0098V0Z" fill="#ED3424"/>
<path d="M41.7295 11.7709V12.4974H48.0015C48.2602 12.4673 48.5222 12.4888 48.7725 12.5605C49.0228 12.6323 49.2564 12.753 49.4598 12.9155C49.6221 13.1191 49.7426 13.3527 49.8144 13.6029C49.8862 13.8532 49.9078 14.1152 49.8779 14.3738V20.6459C49.9078 20.9045 49.8862 21.1665 49.8144 21.4167C49.7426 21.667 49.6221 21.9006 49.4598 22.1041C49.2564 22.2667 49.0228 22.3874 48.7725 22.4591C48.5222 22.5309 48.2602 22.5523 48.0015 22.5222H44.9753C44.4526 22.5222 43.7784 22.5222 43.517 21.9473C43.2557 21.3724 43.6216 20.8549 43.9352 20.4368L47.9963 15.0219H41.7243L39.2259 18.3356C38.7881 18.7878 38.5124 19.3723 38.4419 19.9977C38.4419 20.6249 38.7764 21.0744 39.2259 21.6703L39.8531 22.5013C40.4751 23.3324 41.1023 24.1687 41.9438 24.592C42.7853 25.0154 43.7679 25.0102 45.1216 25.0102H47.8343C49.4023 25.0102 51.7386 25.0102 53.3014 23.4421C54.8642 21.8741 54.8694 19.5901 54.8694 18.7381V16.2502C54.8694 15.4139 54.8694 13.1142 53.3014 11.5462C51.7334 9.97814 49.3918 9.97814 47.8343 9.97814H43.5066C43.2642 9.94934 43.0186 9.97168 42.7854 10.0437C42.5522 10.1157 42.3367 10.2358 42.1529 10.3963C41.9906 10.5792 41.869 10.7944 41.7961 11.0278C41.7231 11.2611 41.7004 11.5072 41.7295 11.75" fill="white"/>
<path d="M34.234 15H40.4851L32.9848 24.9987H26.7336L34.234 15Z" fill="white"/>
<path d="M9.85791 16.7679C9.82944 16.5256 9.85193 16.28 9.92393 16.0468C9.99594 15.8137 10.1159 15.5982 10.276 15.4142C10.4607 15.2552 10.6764 15.1364 10.9095 15.0653C11.1425 14.9942 11.3878 14.9724 11.6298 15.0012H22.0832C23.4369 15.0012 24.43 15.0012 25.261 15.4142C26.0921 15.8271 26.7193 16.6686 27.3517 17.5048L27.9737 18.3411C28.418 18.9317 28.7577 19.3865 28.7577 20.0032C28.6882 20.632 28.4126 21.2201 27.9737 21.6758L25.4753 25.0052H19.2033L23.2644 19.5903C23.578 19.1722 23.9439 18.6547 23.6826 18.0745C23.4212 17.4944 22.7417 17.5048 22.2191 17.5048H17.3582V30.0019H12.3563V17.4996H9.85791V16.7679Z" fill="white"/>
</svg>
