<svg width="43" height="43" viewBox="0 0 43 43" fill="none" xmlns="http://www.w3.org/2000/svg">
<path d="M43 0H0V42.99H43V0Z" fill="#E21A1A"/>
<path d="M27.6019 12.6506V13.4315H31.7401C32.0132 13.4315 32.4281 13.4315 32.7047 13.8808C32.9778 14.3302 32.9778 14.9987 32.9778 15.4481V22.1665C32.9778 22.6103 32.9778 23.2844 32.7047 23.7338C32.4316 24.1832 32.0132 24.1832 31.7401 24.1832H29.7419C29.3962 24.1832 28.9467 24.1832 28.7773 23.5653C28.6045 22.953 28.8465 22.3912 29.0539 21.9418L31.7436 16.1222H27.6054L25.9529 19.7061C25.6763 20.3072 25.4377 20.824 25.4377 21.4924C25.4377 22.1609 25.659 22.6496 25.9529 23.2844L26.3677 24.1776C26.7791 25.0707 27.194 25.9695 27.7437 26.4189C28.2968 26.8683 28.9502 26.8683 29.8456 26.8683H31.6364C32.6701 26.8683 34.2224 26.8683 35.2526 25.1887C36.2863 23.5091 36.2863 21.043 36.2863 20.1499V17.4648C36.2863 16.566 36.2863 14.1055 35.2526 12.4316C34.2189 10.752 32.6666 10.752 31.6364 10.752H28.7739C28.5008 10.752 28.1551 10.752 27.8785 11.1957C27.5985 11.6451 27.5985 12.2012 27.5985 12.6506" fill="white"/>
<path d="M22.6409 16.1221H26.7757L21.8147 26.8682H17.6799L22.6409 16.1221Z" fill="white"/>
<path d="M6.51685 18.0208C6.51685 17.577 6.51685 17.0152 6.79342 16.5658C7.06999 16.1221 7.41225 16.1221 7.68882 16.1221H14.6135C15.5089 16.1221 16.1657 16.1221 16.7154 16.5658C17.2686 17.0152 17.68 17.9084 18.0948 18.8072L18.5062 19.706C18.8001 20.3407 19.0248 20.8238 19.0248 21.4979C19.0248 22.172 18.7863 22.6888 18.5062 23.2899L16.8537 26.8738H12.719L15.4052 21.0485C15.6126 20.6048 15.8546 20.043 15.6817 19.4251C15.5089 18.8072 15.0595 18.8072 14.7137 18.8072H11.4779V32.244H8.16936V18.8072H6.51685V18.0208Z" fill="white"/>
</svg>
