<svg width="230" height="22" viewBox="0 0 230 22" fill="none" xmlns="http://www.w3.org/2000/svg">
<path d="M5.8457 12.6973H2.14453V10.7539H5.8457C6.49023 10.7539 7.01107 10.6497 7.4082 10.4414C7.80534 10.2331 8.09505 9.94661 8.27734 9.58203C8.46615 9.21094 8.56055 8.78776 8.56055 8.3125C8.56055 7.86328 8.46615 7.44336 8.27734 7.05273C8.09505 6.6556 7.80534 6.33659 7.4082 6.0957C7.01107 5.85482 6.49023 5.73438 5.8457 5.73438H2.89648V18H0.445312V3.78125H5.8457C6.94596 3.78125 7.88021 3.97656 8.64844 4.36719C9.42318 4.7513 10.0124 5.28516 10.416 5.96875C10.8197 6.64583 11.0215 7.42057 11.0215 8.29297C11.0215 9.21094 10.8197 9.9987 10.416 10.6562C10.0124 11.3138 9.42318 11.8184 8.64844 12.1699C7.88021 12.5215 6.94596 12.6973 5.8457 12.6973ZM17.1445 11.8477L11.8809 3.78125H14.8594L18.3262 9.72852H20.8848L20.543 11.8477H17.1445ZM18.3652 11.5352L14.6348 18H11.5879L16.5391 9.875L18.3652 11.5352ZM22.3008 3.78125V18H19.8594V3.78125H22.3008ZM30.1816 3.78125L24.957 11.8477H21.6074L21.2656 9.72852H23.7754L27.1934 3.78125H30.1816ZM27.418 18L23.7461 11.5352L25.582 9.875L30.4648 18H27.418ZM43.3945 16.0566V18H32.916V16.0566H43.3945ZM33.5215 16.0566V21.4961H31.1777L31.0898 16.0566H33.5215ZM45.2891 16.0566L45.1426 21.4863H42.8379V16.0566H45.2891ZM41.6758 3.78125V5.73438H35.1133V3.78125H41.6758ZM43.5508 3.78125V18H41.1094V3.78125H43.5508ZM34.625 3.78125H37.0762L36.7344 9.54297C36.6823 10.4544 36.5879 11.2747 36.4512 12.0039C36.3145 12.7331 36.1484 13.3874 35.9531 13.9668C35.7643 14.5397 35.5495 15.0475 35.3086 15.4902C35.0677 15.9264 34.8105 16.304 34.5371 16.623C34.2637 16.9421 33.9837 17.2155 33.6973 17.4434C33.4173 17.6647 33.1406 17.8503 32.8672 18H31.5586V16.0566H32.1934C32.3691 15.8939 32.5645 15.6595 32.7793 15.3535C32.9941 15.041 33.2025 14.6341 33.4043 14.1328C33.6126 13.625 33.7949 12.9967 33.9512 12.248C34.1074 11.4993 34.2148 10.5977 34.2734 9.54297L34.625 3.78125ZM47.0078 16.8281C47.0078 16.4635 47.1315 16.1576 47.3789 15.9102C47.6263 15.6562 47.9616 15.5293 48.3848 15.5293C48.8145 15.5293 49.1497 15.6562 49.3906 15.9102C49.638 16.1576 49.7617 16.4635 49.7617 16.8281C49.7617 17.1927 49.638 17.4987 49.3906 17.7461C49.1497 17.9935 48.8145 18.1172 48.3848 18.1172C47.9616 18.1172 47.6263 17.9935 47.3789 17.7461C47.1315 17.4987 47.0078 17.1927 47.0078 16.8281ZM63.9414 16.0566V18H53.4629V16.0566H63.9414ZM54.0684 16.0566V21.4961H51.7246L51.6367 16.0566H54.0684ZM65.8359 16.0566L65.6895 21.4863H63.3848V16.0566H65.8359ZM62.2227 3.78125V5.73438H55.6602V3.78125H62.2227ZM64.0977 3.78125V18H61.6562V3.78125H64.0977ZM55.1719 3.78125H57.623L57.2812 9.54297C57.2292 10.4544 57.1348 11.2747 56.998 12.0039C56.8613 12.7331 56.6953 13.3874 56.5 13.9668C56.3112 14.5397 56.0964 15.0475 55.8555 15.4902C55.6146 15.9264 55.3574 16.304 55.084 16.623C54.8105 16.9421 54.5306 17.2155 54.2441 17.4434C53.9642 17.6647 53.6875 17.8503 53.4141 18H52.1055V16.0566H52.7402C52.916 15.8939 53.1113 15.6595 53.3262 15.3535C53.541 15.041 53.7493 14.6341 53.9512 14.1328C54.1595 13.625 54.3418 12.9967 54.498 12.248C54.6543 11.4993 54.7617 10.5977 54.8203 9.54297L55.1719 3.78125ZM77.1738 3.78125V5.73438H70.3574V3.78125H77.1738ZM79.0488 3.78125V18H76.5977V3.78125H79.0488ZM69.8691 3.78125H72.3008L71.959 10.8418C71.9134 11.877 71.8255 12.7884 71.6953 13.5762C71.5651 14.3639 71.3893 15.0378 71.168 15.5977C70.9466 16.1576 70.6667 16.6165 70.3281 16.9746C69.9896 17.3262 69.5827 17.5866 69.1074 17.7559C68.6387 17.9186 68.0885 18 67.457 18H66.832V16.0566L67.2129 16.0273C67.5579 16.0013 67.8542 15.9199 68.1016 15.7832C68.3555 15.64 68.5703 15.4316 68.7461 15.1582C68.9219 14.8783 69.0684 14.5169 69.1855 14.0742C69.3027 13.6315 69.3939 13.0911 69.459 12.4531C69.5306 11.8151 69.5827 11.0697 69.6152 10.2168L69.8691 3.78125ZM89.6934 12.668H85.7773L84.8105 12.2676C83.7363 11.929 82.9128 11.4147 82.3398 10.7246C81.7669 10.0345 81.4805 9.16536 81.4805 8.11719C81.4805 7.17969 81.6888 6.38867 82.1055 5.74414C82.5221 5.09961 83.1146 4.61133 83.8828 4.2793C84.6576 3.94727 85.5723 3.78125 86.627 3.78125H91.4023V18H88.9414V5.73438H86.627C85.7155 5.73438 85.0384 5.95573 84.5957 6.39844C84.153 6.84115 83.9316 7.45312 83.9316 8.23438C83.9316 8.76823 84.0293 9.22721 84.2246 9.61133C84.4264 9.98893 84.7227 10.2819 85.1133 10.4902C85.5104 10.6921 86.002 10.793 86.5879 10.793H89.6934V12.668ZM86.7051 11.5742L83.4043 18H80.7676L84.1074 11.5742H86.7051ZM108.561 3.78125V5.73438H101.744V3.78125H108.561ZM110.436 3.78125V18H107.984V3.78125H110.436ZM101.256 3.78125H103.688L103.346 10.8418C103.3 11.877 103.212 12.7884 103.082 13.5762C102.952 14.3639 102.776 15.0378 102.555 15.5977C102.333 16.1576 102.053 16.6165 101.715 16.9746C101.376 17.3262 100.969 17.5866 100.494 17.7559C100.025 17.9186 99.4753 18 98.8438 18H98.2188V16.0566L98.5996 16.0273C98.9447 16.0013 99.2409 15.9199 99.4883 15.7832C99.7422 15.64 99.957 15.4316 100.133 15.1582C100.309 14.8783 100.455 14.5169 100.572 14.0742C100.689 13.6315 100.781 13.0911 100.846 12.4531C100.917 11.8151 100.969 11.0697 101.002 10.2168L101.256 3.78125ZM115.953 3.78125V18H113.502V3.78125H115.953ZM118.922 10.1777V12.0527H115.27V10.1777H118.922ZM129.547 10.5V11.2812C129.547 12.3555 129.407 13.319 129.127 14.1719C128.847 15.0247 128.447 15.7507 127.926 16.3496C127.405 16.9486 126.783 17.4076 126.061 17.7266C125.344 18.0391 124.544 18.1953 123.658 18.1953C122.792 18.1953 121.998 18.0391 121.275 17.7266C120.553 17.4076 119.928 16.9486 119.4 16.3496C118.873 15.7507 118.466 15.0247 118.18 14.1719C117.893 13.319 117.75 12.3555 117.75 11.2812V10.5C117.75 9.42578 117.893 8.46549 118.18 7.61914C118.466 6.76628 118.87 6.04036 119.391 5.44141C119.911 4.83594 120.533 4.37695 121.256 4.06445C121.979 3.74544 122.773 3.58594 123.639 3.58594C124.524 3.58594 125.328 3.74544 126.051 4.06445C126.773 4.37695 127.395 4.83594 127.916 5.44141C128.437 6.04036 128.837 6.76628 129.117 7.61914C129.404 8.46549 129.547 9.42578 129.547 10.5ZM127.096 11.2812V10.4805C127.096 9.6862 127.018 8.98633 126.861 8.38086C126.705 7.76888 126.48 7.25781 126.188 6.84766C125.895 6.43099 125.533 6.11849 125.104 5.91016C124.674 5.69531 124.186 5.58789 123.639 5.58789C123.105 5.58789 122.626 5.69531 122.203 5.91016C121.78 6.11849 121.419 6.43099 121.119 6.84766C120.826 7.25781 120.602 7.76888 120.445 8.38086C120.289 8.98633 120.211 9.6862 120.211 10.4805V11.2812C120.211 12.0755 120.289 12.7786 120.445 13.3906C120.602 14.0026 120.829 14.5202 121.129 14.9434C121.435 15.36 121.799 15.6758 122.223 15.8906C122.646 16.099 123.124 16.2031 123.658 16.2031C124.212 16.2031 124.7 16.099 125.123 15.8906C125.546 15.6758 125.904 15.36 126.197 14.9434C126.49 14.5202 126.712 14.0026 126.861 13.3906C127.018 12.7786 127.096 12.0755 127.096 11.2812ZM142.75 16.0566V18H132.271V16.0566H142.75ZM132.877 16.0566V21.4961H130.533L130.445 16.0566H132.877ZM144.645 16.0566L144.498 21.4863H142.193V16.0566H144.645ZM141.031 3.78125V5.73438H134.469V3.78125H141.031ZM142.906 3.78125V18H140.465V3.78125H142.906ZM133.98 3.78125H136.432L136.09 9.54297C136.038 10.4544 135.943 11.2747 135.807 12.0039C135.67 12.7331 135.504 13.3874 135.309 13.9668C135.12 14.5397 134.905 15.0475 134.664 15.4902C134.423 15.9264 134.166 16.304 133.893 16.623C133.619 16.9421 133.339 17.2155 133.053 17.4434C132.773 17.6647 132.496 17.8503 132.223 18H130.914V16.0566H131.549C131.725 15.8939 131.92 15.6595 132.135 15.3535C132.35 15.041 132.558 14.6341 132.76 14.1328C132.968 13.625 133.15 12.9967 133.307 12.248C133.463 11.4993 133.57 10.5977 133.629 9.54297L133.98 3.78125ZM155.807 16.0566V18H148.258V16.0566H155.807ZM148.951 3.78125V18H146.5V3.78125H148.951ZM154.82 9.71875V11.6328H148.258V9.71875H154.82ZM155.758 3.78125V5.73438H148.258V3.78125H155.758ZM160.23 14.0059L166.539 3.78125H168.99V18H166.539V7.76562L160.23 18H157.789V3.78125H160.23V14.0059ZM164.85 0.138672H166.598C166.598 0.679036 166.467 1.15755 166.207 1.57422C165.953 1.98438 165.589 2.30664 165.113 2.54102C164.645 2.77539 164.085 2.89258 163.434 2.89258C162.451 2.89258 161.673 2.63867 161.1 2.13086C160.533 1.61654 160.25 0.952474 160.25 0.138672H161.998C161.998 0.503255 162.105 0.825521 162.32 1.10547C162.542 1.37891 162.913 1.51562 163.434 1.51562C163.948 1.51562 164.312 1.37891 164.527 1.10547C164.742 0.825521 164.85 0.503255 164.85 0.138672ZM188.141 16.0566V18H177.662V16.0566H188.141ZM178.268 16.0566V21.4961H175.924L175.836 16.0566H178.268ZM190.035 16.0566L189.889 21.4863H187.584V16.0566H190.035ZM186.422 3.78125V5.73438H179.859V3.78125H186.422ZM188.297 3.78125V18H185.855V3.78125H188.297ZM179.371 3.78125H181.822L181.48 9.54297C181.428 10.4544 181.334 11.2747 181.197 12.0039C181.061 12.7331 180.895 13.3874 180.699 13.9668C180.51 14.5397 180.296 15.0475 180.055 15.4902C179.814 15.9264 179.557 16.304 179.283 16.623C179.01 16.9421 178.73 17.2155 178.443 17.4434C178.163 17.6647 177.887 17.8503 177.613 18H176.305V16.0566H176.939C177.115 15.8939 177.311 15.6595 177.525 15.3535C177.74 15.041 177.949 14.6341 178.15 14.1328C178.359 13.625 178.541 12.9967 178.697 12.248C178.854 11.4993 178.961 10.5977 179.02 9.54297L179.371 3.78125ZM201.197 16.0566V18H193.648V16.0566H201.197ZM194.342 3.78125V18H191.891V3.78125H194.342ZM200.211 9.71875V11.6328H193.648V9.71875H200.211ZM201.148 3.78125V5.73438H193.648V3.78125H201.148ZM212.525 3.78125V5.73438H205.709V3.78125H212.525ZM214.4 3.78125V18H211.949V3.78125H214.4ZM205.221 3.78125H207.652L207.311 10.8418C207.265 11.877 207.177 12.7884 207.047 13.5762C206.917 14.3639 206.741 15.0378 206.52 15.5977C206.298 16.1576 206.018 16.6165 205.68 16.9746C205.341 17.3262 204.934 17.5866 204.459 17.7559C203.99 17.9186 203.44 18 202.809 18H202.184V16.0566L202.564 16.0273C202.91 16.0013 203.206 15.9199 203.453 15.7832C203.707 15.64 203.922 15.4316 204.098 15.1582C204.273 14.8783 204.42 14.5169 204.537 14.0742C204.654 13.6315 204.745 13.0911 204.811 12.4531C204.882 11.8151 204.934 11.0697 204.967 10.2168L205.221 3.78125ZM223.053 5.67578L218.805 18H216.236L221.588 3.78125H223.229L223.053 5.67578ZM226.607 18L222.35 5.67578L222.164 3.78125H223.814L229.186 18H226.607ZM226.402 12.7266V14.6699H218.668V12.7266H226.402Z" fill="white"/>
</svg>
