<svg width="184" height="18" viewBox="0 0 184 18" fill="none" xmlns="http://www.w3.org/2000/svg">
<path d="M4.47656 10.7578H1.51562V9.20312H4.47656C4.99219 9.20312 5.40885 9.11979 5.72656 8.95312C6.04427 8.78646 6.27604 8.55729 6.42188 8.26562C6.57292 7.96875 6.64844 7.63021 6.64844 7.25C6.64844 6.89062 6.57292 6.55469 6.42188 6.24219C6.27604 5.92448 6.04427 5.66927 5.72656 5.47656C5.40885 5.28385 4.99219 5.1875 4.47656 5.1875H2.11719V15H0.15625V3.625H4.47656C5.35677 3.625 6.10417 3.78125 6.71875 4.09375C7.33854 4.40104 7.8099 4.82812 8.13281 5.375C8.45573 5.91667 8.61719 6.53646 8.61719 7.23438C8.61719 7.96875 8.45573 8.59896 8.13281 9.125C7.8099 9.65104 7.33854 10.0547 6.71875 10.3359C6.10417 10.6172 5.35677 10.7578 4.47656 10.7578ZM13.5156 10.0781L9.30469 3.625H11.6875L14.4609 8.38281H16.5078L16.2344 10.0781H13.5156ZM14.4922 9.82812L11.5078 15H9.07031L13.0312 8.5L14.4922 9.82812ZM17.6406 3.625V15H15.6875V3.625H17.6406ZM23.9453 3.625L19.7656 10.0781H17.0859L16.8125 8.38281H18.8203L21.5547 3.625H23.9453ZM21.7344 15L18.7969 9.82812L20.2656 8.5L24.1719 15H21.7344ZM34.5156 13.4453V15H26.1328V13.4453H34.5156ZM26.6172 13.4453V17.7969H24.7422L24.6719 13.4453H26.6172ZM36.0312 13.4453L35.9141 17.7891H34.0703V13.4453H36.0312ZM33.1406 3.625V5.1875H27.8906V3.625H33.1406ZM34.6406 3.625V15H32.6875V3.625H34.6406ZM27.5 3.625H29.4609L29.1875 8.23438C29.1458 8.96354 29.0703 9.61979 28.9609 10.2031C28.8516 10.7865 28.7188 11.3099 28.5625 11.7734C28.4115 12.2318 28.2396 12.638 28.0469 12.9922C27.8542 13.3411 27.6484 13.6432 27.4297 13.8984C27.2109 14.1536 26.987 14.3724 26.7578 14.5547C26.5339 14.7318 26.3125 14.8802 26.0938 15H25.0469V13.4453H25.5547C25.6953 13.3151 25.8516 13.1276 26.0234 12.8828C26.1953 12.6328 26.362 12.3073 26.5234 11.9062C26.6901 11.5 26.8359 10.9974 26.9609 10.3984C27.0859 9.79948 27.1719 9.07812 27.2188 8.23438L27.5 3.625ZM37.4062 14.0625C37.4062 13.7708 37.5052 13.526 37.7031 13.3281C37.901 13.125 38.1693 13.0234 38.5078 13.0234C38.8516 13.0234 39.1198 13.125 39.3125 13.3281C39.5104 13.526 39.6094 13.7708 39.6094 14.0625C39.6094 14.3542 39.5104 14.599 39.3125 14.7969C39.1198 14.9948 38.8516 15.0938 38.5078 15.0938C38.1693 15.0938 37.901 14.9948 37.7031 14.7969C37.5052 14.599 37.4062 14.3542 37.4062 14.0625ZM50.9531 13.4453V15H42.5703V13.4453H50.9531ZM43.0547 13.4453V17.7969H41.1797L41.1094 13.4453H43.0547ZM52.4688 13.4453L52.3516 17.7891H50.5078V13.4453H52.4688ZM49.5781 3.625V5.1875H44.3281V3.625H49.5781ZM51.0781 3.625V15H49.125V3.625H51.0781ZM43.9375 3.625H45.8984L45.625 8.23438C45.5833 8.96354 45.5078 9.61979 45.3984 10.2031C45.2891 10.7865 45.1562 11.3099 45 11.7734C44.849 12.2318 44.6771 12.638 44.4844 12.9922C44.2917 13.3411 44.0859 13.6432 43.8672 13.8984C43.6484 14.1536 43.4245 14.3724 43.1953 14.5547C42.9714 14.7318 42.75 14.8802 42.5312 15H41.4844V13.4453H41.9922C42.1328 13.3151 42.2891 13.1276 42.4609 12.8828C42.6328 12.6328 42.7995 12.3073 42.9609 11.9062C43.1276 11.5 43.2734 10.9974 43.3984 10.3984C43.5234 9.79948 43.6094 9.07812 43.6562 8.23438L43.9375 3.625ZM61.5391 3.625V5.1875H56.0859V3.625H61.5391ZM63.0391 3.625V15H61.0781V3.625H63.0391ZM55.6953 3.625H57.6406L57.3672 9.27344C57.3307 10.1016 57.2604 10.8307 57.1562 11.4609C57.0521 12.0911 56.9115 12.6302 56.7344 13.0781C56.5573 13.526 56.3333 13.8932 56.0625 14.1797C55.7917 14.4609 55.4661 14.6693 55.0859 14.8047C54.7109 14.9349 54.2708 15 53.7656 15H53.2656V13.4453L53.5703 13.4219C53.8464 13.401 54.0833 13.3359 54.2812 13.2266C54.4844 13.112 54.6562 12.9453 54.7969 12.7266C54.9375 12.5026 55.0547 12.2135 55.1484 11.8594C55.2422 11.5052 55.3151 11.0729 55.3672 10.5625C55.4245 10.0521 55.4661 9.45573 55.4922 8.77344L55.6953 3.625ZM71.5547 10.7344H68.4219L67.6484 10.4141C66.7891 10.1432 66.1302 9.73177 65.6719 9.17969C65.2135 8.6276 64.9844 7.93229 64.9844 7.09375C64.9844 6.34375 65.151 5.71094 65.4844 5.19531C65.8177 4.67969 66.2917 4.28906 66.9062 4.02344C67.526 3.75781 68.2578 3.625 69.1016 3.625H72.9219V15H70.9531V5.1875H69.1016C68.3724 5.1875 67.8307 5.36458 67.4766 5.71875C67.1224 6.07292 66.9453 6.5625 66.9453 7.1875C66.9453 7.61458 67.0234 7.98177 67.1797 8.28906C67.3411 8.59115 67.5781 8.82552 67.8906 8.99219C68.2083 9.15365 68.6016 9.23438 69.0703 9.23438H71.5547V10.7344ZM69.1641 9.85938L66.5234 15H64.4141L67.0859 9.85938H69.1641ZM86.6484 3.625V5.1875H81.1953V3.625H86.6484ZM88.1484 3.625V15H86.1875V3.625H88.1484ZM80.8047 3.625H82.75L82.4766 9.27344C82.4401 10.1016 82.3698 10.8307 82.2656 11.4609C82.1615 12.0911 82.0208 12.6302 81.8438 13.0781C81.6667 13.526 81.4427 13.8932 81.1719 14.1797C80.901 14.4609 80.5755 14.6693 80.1953 14.8047C79.8203 14.9349 79.3802 15 78.875 15H78.375V13.4453L78.6797 13.4219C78.9557 13.401 79.1927 13.3359 79.3906 13.2266C79.5938 13.112 79.7656 12.9453 79.9062 12.7266C80.0469 12.5026 80.1641 12.2135 80.2578 11.8594C80.3516 11.5052 80.4245 11.0729 80.4766 10.5625C80.5339 10.0521 80.5755 9.45573 80.6016 8.77344L80.8047 3.625ZM92.5625 3.625V15H90.6016V3.625H92.5625ZM94.9375 8.74219V10.2422H92.0156V8.74219H94.9375ZM103.438 9V9.625C103.438 10.4844 103.326 11.2552 103.102 11.9375C102.878 12.6198 102.557 13.2005 102.141 13.6797C101.724 14.1589 101.227 14.526 100.648 14.7812C100.076 15.0312 99.4349 15.1562 98.7266 15.1562C98.0339 15.1562 97.3984 15.0312 96.8203 14.7812C96.2422 14.526 95.7422 14.1589 95.3203 13.6797C94.8984 13.2005 94.5729 12.6198 94.3438 11.9375C94.1146 11.2552 94 10.4844 94 9.625V9C94 8.14062 94.1146 7.3724 94.3438 6.69531C94.5729 6.01302 94.8958 5.43229 95.3125 4.95312C95.7292 4.46875 96.2266 4.10156 96.8047 3.85156C97.3828 3.59635 98.0182 3.46875 98.7109 3.46875C99.4193 3.46875 100.062 3.59635 100.641 3.85156C101.219 4.10156 101.716 4.46875 102.133 4.95312C102.549 5.43229 102.87 6.01302 103.094 6.69531C103.323 7.3724 103.438 8.14062 103.438 9ZM101.477 9.625V8.98438C101.477 8.34896 101.414 7.78906 101.289 7.30469C101.164 6.8151 100.984 6.40625 100.75 6.07812C100.516 5.74479 100.227 5.49479 99.8828 5.32812C99.5391 5.15625 99.1484 5.07031 98.7109 5.07031C98.2839 5.07031 97.901 5.15625 97.5625 5.32812C97.224 5.49479 96.9349 5.74479 96.6953 6.07812C96.4609 6.40625 96.2812 6.8151 96.1562 7.30469C96.0312 7.78906 95.9688 8.34896 95.9688 8.98438V9.625C95.9688 10.2604 96.0312 10.8229 96.1562 11.3125C96.2812 11.8021 96.4635 12.2161 96.7031 12.5547C96.9479 12.888 97.2396 13.1406 97.5781 13.3125C97.9167 13.4792 98.2995 13.5625 98.7266 13.5625C99.1693 13.5625 99.5599 13.4792 99.8984 13.3125C100.237 13.1406 100.523 12.888 100.758 12.5547C100.992 12.2161 101.169 11.8021 101.289 11.3125C101.414 10.8229 101.477 10.2604 101.477 9.625ZM114 13.4453V15H105.617V13.4453H114ZM106.102 13.4453V17.7969H104.227L104.156 13.4453H106.102ZM115.516 13.4453L115.398 17.7891H113.555V13.4453H115.516ZM112.625 3.625V5.1875H107.375V3.625H112.625ZM114.125 3.625V15H112.172V3.625H114.125ZM106.984 3.625H108.945L108.672 8.23438C108.63 8.96354 108.555 9.61979 108.445 10.2031C108.336 10.7865 108.203 11.3099 108.047 11.7734C107.896 12.2318 107.724 12.638 107.531 12.9922C107.339 13.3411 107.133 13.6432 106.914 13.8984C106.695 14.1536 106.471 14.3724 106.242 14.5547C106.018 14.7318 105.797 14.8802 105.578 15H104.531V13.4453H105.039C105.18 13.3151 105.336 13.1276 105.508 12.8828C105.68 12.6328 105.846 12.3073 106.008 11.9062C106.174 11.5 106.32 10.9974 106.445 10.3984C106.57 9.79948 106.656 9.07812 106.703 8.23438L106.984 3.625ZM124.445 13.4453V15H118.406V13.4453H124.445ZM118.961 3.625V15H117V3.625H118.961ZM123.656 8.375V9.90625H118.406V8.375H123.656ZM124.406 3.625V5.1875H118.406V3.625H124.406ZM127.984 11.8047L133.031 3.625H134.992V15H133.031V6.8125L127.984 15H126.031V3.625H127.984V11.8047ZM131.68 0.710938H133.078C133.078 1.14323 132.974 1.52604 132.766 1.85938C132.562 2.1875 132.271 2.44531 131.891 2.63281C131.516 2.82031 131.068 2.91406 130.547 2.91406C129.76 2.91406 129.138 2.71094 128.68 2.30469C128.227 1.89323 128 1.36198 128 0.710938H129.398C129.398 1.0026 129.484 1.26042 129.656 1.48438C129.833 1.70312 130.13 1.8125 130.547 1.8125C130.958 1.8125 131.25 1.70312 131.422 1.48438C131.594 1.26042 131.68 1.0026 131.68 0.710938ZM150.312 13.4453V15H141.93V13.4453H150.312ZM142.414 13.4453V17.7969H140.539L140.469 13.4453H142.414ZM151.828 13.4453L151.711 17.7891H149.867V13.4453H151.828ZM148.938 3.625V5.1875H143.688V3.625H148.938ZM150.438 3.625V15H148.484V3.625H150.438ZM143.297 3.625H145.258L144.984 8.23438C144.943 8.96354 144.867 9.61979 144.758 10.2031C144.648 10.7865 144.516 11.3099 144.359 11.7734C144.208 12.2318 144.036 12.638 143.844 12.9922C143.651 13.3411 143.445 13.6432 143.227 13.8984C143.008 14.1536 142.784 14.3724 142.555 14.5547C142.331 14.7318 142.109 14.8802 141.891 15H140.844V13.4453H141.352C141.492 13.3151 141.648 13.1276 141.82 12.8828C141.992 12.6328 142.159 12.3073 142.32 11.9062C142.487 11.5 142.633 10.9974 142.758 10.3984C142.883 9.79948 142.969 9.07812 143.016 8.23438L143.297 3.625ZM160.758 13.4453V15H154.719V13.4453H160.758ZM155.273 3.625V15H153.312V3.625H155.273ZM159.969 8.375V9.90625H154.719V8.375H159.969ZM160.719 3.625V5.1875H154.719V3.625H160.719ZM169.82 3.625V5.1875H164.367V3.625H169.82ZM171.32 3.625V15H169.359V3.625H171.32ZM163.977 3.625H165.922L165.648 9.27344C165.612 10.1016 165.542 10.8307 165.438 11.4609C165.333 12.0911 165.193 12.6302 165.016 13.0781C164.839 13.526 164.615 13.8932 164.344 14.1797C164.073 14.4609 163.747 14.6693 163.367 14.8047C162.992 14.9349 162.552 15 162.047 15H161.547V13.4453L161.852 13.4219C162.128 13.401 162.365 13.3359 162.562 13.2266C162.766 13.112 162.938 12.9453 163.078 12.7266C163.219 12.5026 163.336 12.2135 163.43 11.8594C163.523 11.5052 163.596 11.0729 163.648 10.5625C163.706 10.0521 163.747 9.45573 163.773 8.77344L163.977 3.625ZM178.242 5.14062L174.844 15H172.789L177.07 3.625H178.383L178.242 5.14062ZM181.086 15L177.68 5.14062L177.531 3.625H178.852L183.148 15H181.086ZM180.922 10.7812V12.3359H174.734V10.7812H180.922Z" fill="black"/>
</svg>
