<svg width="43" height="43" viewBox="0 0 43 43" fill="none" xmlns="http://www.w3.org/2000/svg">
<path d="M0 20.5993C0 10.8887 0 6.0334 3.01741 3.0167C6.03482 0 10.8913 0 20.6042 0H22.3958C32.1087 0 36.9652 0 39.9826 3.0167C43 6.0334 43 10.8887 43 20.5993V22.3906C43 32.1012 43 36.9565 39.9826 39.9732C36.9652 42.9899 32.1087 42.9899 22.3958 42.9899H20.6042C10.8913 42.9899 6.03482 42.9899 3.01741 39.9732C0 36.9565 0 32.1012 0 22.3906L0 20.5993Z" fill="#2787F5"/>
<path fill-rule="evenodd" clip-rule="evenodd" d="M11.6467 13.4346H8.51054C7.61449 13.4346 7.43527 13.8562 7.43527 14.3211C7.43527 15.1514 8.4985 19.2694 12.3858 24.7157C14.9774 28.4352 18.6286 30.4514 21.9512 30.4514C23.9447 30.4514 24.1913 30.0036 24.1913 29.2323V26.4211C24.1913 25.5255 24.3801 25.3467 25.0113 25.3467C25.4765 25.3467 26.2739 25.5792 28.1346 27.3725C30.261 29.4979 30.6116 30.4514 31.8076 30.4514H34.9437C35.8398 30.4514 36.2878 30.0036 36.0294 29.1199C35.7466 28.2391 34.7313 26.9612 33.3842 25.4464C32.6532 24.5829 31.5567 23.6531 31.2245 23.1881C30.7594 22.5903 30.8922 22.3246 31.2245 21.7933C31.2245 21.7933 35.0454 16.4133 35.4441 14.5869C35.6434 13.9226 35.4441 13.4346 34.4957 13.4346H31.3596C30.5622 13.4346 30.1945 13.8562 29.9951 14.3211C29.9951 14.3211 28.4004 18.2066 26.1411 20.7306C25.4101 21.4611 25.0778 21.6936 24.6791 21.6936C24.4798 21.6936 24.1912 21.4611 24.1912 20.797V14.5869C24.1912 13.7898 23.9598 13.4346 23.2952 13.4346H18.3669C17.8687 13.4346 17.5689 13.8045 17.5689 14.1551C17.5689 14.9106 18.6986 15.0849 18.815 17.2103V21.8266C18.815 22.8386 18.6321 23.0221 18.2335 23.0221C17.1703 23.0221 14.5841 19.1192 13.0503 14.6532C12.7497 13.7852 12.4482 13.4346 11.6467 13.4346Z" fill="white"/>
</svg>
