<svg width="29" height="18" viewBox="0 0 29 18" fill="none" xmlns="http://www.w3.org/2000/svg">
<path d="M28.5818 15.3952C27.4383 13.4327 24.4927 11.0745 23.2766 10.0484C22.9438 9.76742 22.9082 9.28134 23.2111 8.97064C25.5318 6.59246 27.388 3.85988 28.0269 2.20868C28.3088 1.47927 27.7253 0.708586 26.9031 0.708586H24.5149C23.7278 0.708586 23.2671 0.978021 23.0475 1.40705C21.1187 5.1761 19.4642 6.80728 18.3061 7.76061C17.6577 8.29463 16.6465 7.85225 16.6465 7.03969C16.6465 5.47406 16.6465 3.45027 16.6465 2.0151C16.6465 1.31906 16.0496 0.75592 15.3134 0.75592L10.9506 0.708586C10.4014 0.708586 10.0877 1.30146 10.4173 1.71715L11.1377 2.70325C11.4087 3.0449 11.5551 3.46058 11.5551 3.88719L11.5513 8.328C11.5513 9.1005 10.5694 9.47796 9.9865 8.93666C8.01447 7.10523 6.30333 3.36531 5.68735 1.57697C5.50917 1.05934 5.00073 0.7098 4.4242 0.708586L2.07163 0.703125C1.18902 0.703125 0.543762 1.50111 0.783665 2.30456C2.93324 9.4998 7.34376 16.3449 15.2039 17.0871C15.9783 17.1599 16.6465 16.5652 16.6465 15.8291V13.4952C16.6465 12.8259 17.1969 12.2506 17.9046 12.2336C17.9294 12.233 17.9542 12.233 17.979 12.233C20.058 12.233 22.3863 15.1185 23.2009 16.4681C23.435 16.8565 23.8729 17.0931 24.3463 17.0931H27.5108C28.4342 17.0931 29.0266 16.1592 28.5818 15.3952Z" fill="white"/>
</svg>
